<?xml version="1.0" encoding="iso-8859-1"?>
<!-- Generator: Adobe Illustrator 24.0.2, SVG Export Plug-In . SVG Version: 6.00 Build 0)  -->
<svg version="1.1" id="Calque_1" xmlns="http://www.w3.org/2000/svg" xmlns:xlink="http://www.w3.org/1999/xlink" x="0px" y="0px"
	 viewBox="0 0 595.28 452.377" style="enable-background:new 0 0 595.28 452.377;" xml:space="preserve">
<g>
	<rect x="268.626" y="371.825" width="29.765" height="5.507"/>
	<path d="M244.44,325.265h6.01v-27.81c-1.859-1.605-4.11-3.296-6.01-4.74V325.265z"/>
	<path d="M262.392,325.263v-1.093c-1.453-0.513-3.257-1.448-5.507-2.869v3.962H262.392z"/>
	<path d="M337.407,355.249v-31.575c-1.446,0.25-3.047,0.426-4.799,0.52v31.055H337.407z"/>
	<path d="M230.663,190.46c30.339,27.124,19.228,50.438,16.107,55.666c20.224-31.193,14.563-45.677,0.419-59.502
		c-14.31-13.987-31.809-26.58-34.286-67.576c-2.477-40.996,57.038-84.714,57.038-84.714
		C151.754,119.904,196.165,159.618,230.663,190.46z"/>
	<path d="M271.1,210.007c-7.038,42.276-3.827,40.646,8.446,48.72c0,0,20.108-73.488-22.669-133.699
		C256.877,125.028,278.138,167.731,271.1,210.007z"/>
	<path d="M328.256,34.335c0.162,0.12,0.318,0.239,0.48,0.359C328.428,34.461,328.256,34.335,328.256,34.335z"/>
	<path d="M385.294,119.049c-1.877,76.149-76.568,60.163-33.866,127.078c-36.317-70.665,155.162-79.297-22.692-211.433
		C334.319,38.906,387.642,80.196,385.294,119.049z"/>
	<path d="M327.098,210.007c-7.038-42.276,14.223-84.979,14.223-84.979c-42.777,60.211-22.669,133.699-22.669,133.699
		C330.925,250.653,334.136,252.283,327.098,210.007z"/>
	<path d="M285.486,320.903c3.518-0.372,3.231-0.639,2.847-3.869c-0.151-1.531-4.432,0.345-5.621,0.657
		c-14.45,5.078-22.331-9.909-30.617-18.839c0,4.448,0,10.869,0,15.352c8.746,6.336,11.059,8.117,20.034,8.525
		C276.85,323.071,282.193,322.405,285.486,320.903z"/>
	<path d="M342.868,309.876c-7.041,8.418-14.41,10.76-23.994,6.939c-1.801-0.583-2.774-0.511-2.921,0.219
		c-0.393,3.215-0.67,3.491,2.847,3.869c6.319,2.648,17.628,2.721,24.067-0.519C342.868,319.631,342.868,310.714,342.868,309.876z"/>
	<path d="M279.589,290.685l0.674,2.944c-0.871,2.908,0.569,7.021,1.646,9.995c0.936-0.118,2.966-0.349,3.891-0.41
		c0.293,0.681,0.815,2.099,1.048,2.807c-0.156,0.731-0.456,2.21-0.598,2.944l1.57,1.574c1.855,2.167,9.705,5.245,12.572,5.135
		c0.803-0.014,2.743,0.01,3.517,0c0.897,0,2.069-0.411,3.517-1.234c3.25-1.733,6.205-1.032,9.728-3.423
		c3.524-2.059,8.923-6.197,10.851-9.789c0,0,1.721-3.287,1.721-3.287c-2.753,1.634-7.687,4.788-9.803,6.231
		c-3.121,2.123-7.633,4.089-11.225,3.696c0,0-2.47,0.685-2.47,0.685c-3.784,1.032-7.759-1.233-10.251-4.381
		c-2.778-3.282-4.415-9.507-5.388-13.488l0.673-3.287v-4.724c-0.394-4.93,5.304-12.677,10.177-12.665c0,0,2.394-0.822,2.394-0.822
		l3.891,0.206c2.591,0.784,6.375,1.758,8.456,3.423c2.195,1.627,2.745,4.838,3.666,6.983c0.252,0.689,0.7,0.801,1.271,0.754
		c0,0,1.198-0.342,1.198-0.342c1.191-0.318,1.574-0.758,2.171-1.506c0.012-1.366-0.718-4.385-1.048-6.367
		c-0.151-0.431-0.434-1.043-0.674-1.438l0.523-0.959c0.299-0.639,0.075-1.301-0.674-1.986c0.932-1.383,1.266-1.533,1.272-2.533
		c0,0,0-0.41,0-0.41c0.045-0.643-0.818-1.12-1.347-1.027c-2.16,0.308-4.232,1.509-6.51,0.821c-0.549,0.503-1.271,0.685-2.171,0.547
		c-0.818-1.746-3.343-0.557-4.939-0.205l-1.57-0.547l-3.816-0.411c-4.3-0.1-12.565,4.518-15.938,8.284
		c-4.091,3.762-6.502,11.174-6.66,15.747L279.589,290.685z"/>
	<path d="M178.35,290.095c-3.5,6.91-6.51,14.29-8.67,20.85c8.65,0.36,17.58,0.9,24.82,1.55c1-0.41,0.94-2.67,0.75-3.27
		c-0.06-0.17-0.57-0.36-1.52-0.58c-1.75-0.37-2.57-1.49-3.92-2.81c2.89-8.64,6.04-15.61,9.28-21.46c1.5-1.48,3.21-2.87,5.08-3.92
		l2.48-0.2l2.82-3.62l0.25,4.34l2.41,2.19l-2.19,0.88c0,13.19-0.14,20.29-0.43,21.31c-0.82,2.54-1.51,4.45-5.04,4.31l0.22,3.87
		l23.94-0.51v-2.27c-3.92-1.79-5.55-1.61-6.93-6.42l-0.3-34.67c1.45-5.46,9.93-5.27,13.83-2.59c1.68,1.1,2.75,2.99,3.22,5.69
		c0.68,3.93,0.56,9.03-1.65,11.61c-0.78,0.75-2.23,1.23-4.38,1.42l-7.51-0.66v2.85c6.14,4.66,12.3,12.45,18.17,18.56v-14.87
		l-1.02-0.62v-1.1c0.97-0.51,2.28-1.24,3.28-1.68c1.14-0.5,2.38-2.49,3.21-3.65c1.43-1.9,2.47-3.99,2.92-6.27
		c0.35-1.47,0.9-3.26,0.22-4.67c-0.28-0.72-0.86-2.15-1.17-2.85c-0.46-1.49-2.63-3.16-3.94-4.31c-2.1-1.85-3.52-2.84-7-3.76
		c-2.44-0.65-6.74-1.08-12.92-1.27c-3.34,0.21-6.99,0.25-10.94,0.13c32.31-34.21,15.57-67.89,3.91-76.99
		c4.3,9.6,5.7,17.81,5.05,25.36c-2.45,4.95-7.36,10.65-16.63,16.62c-10.27,6.61-29.93,20.06-49.35,37.59
		c-1.68,0.78-27.02,26.85-27.58,28.86c-2.55,3.18-5,6.43-7.28,9.74h-0.01c-10.193,14.498-17.968,31.591-18.656,48.93
		c-0.827-3.823-3.531-6.731-7.124-9.44l-1.05-0.79c-2.76-2.09-2.76-2.66-2.76-2.97c-0.13-1.18,2.77-1.02,3.15-0.15
		c0.21,0.26,0.3,0.59,0.33,0.71c0.05,2.34,1.72,3.57,3.37,3.57c0.35,0,3.42-0.12,3.42-4.13c0-2.54,0.09-3.07,0.15-4.48
		c-0.15-3.78-4.52-3.9-8.49-4.09c-13.37,0.36-15.43,13.97-4.95,21.28l1.71,1.34c3.02,2.22,3.54,4.77,0.51,4.86
		c-2.52-0.08-2.42-1.53-2.67-2.68c0.19-4.21-6.36-5.53-6.83,0.23c-0.04,0.73-0.19,2.94-0.19,5c0,1.26,0.26,3.04,2.51,4.03
		c6.771,2.946,17.231,0.385,18.9-7.73c0.215,6.332,1.425,12.67,3.86,18.9C109.02,375.195,116.65,295.755,178.35,290.095z
		 M195.59,249.265c12.4-6.05,7.77,0.28,7.64,1.04c-0.13,0.75-4.11,4.84-4.32,6.38c-0.21,1.55-2.46,6.46-2.07,7.3
		c0.39,0.84-1.01,2.12-2.82,4.91c-0.28,1.52-4.72-1.9-5.3,1.68c-1.06,0.55-2.23,1.13-3.54,1.74l-18.64,2.31
		C174.13,265.985,188.48,257.555,195.59,249.265z M102.36,354.215c0.13,7.45-9.08,9.58-14.89,7.05c-0.6-0.26-0.71-0.44-0.71-1.27
		c0-2.05,0.15-4.29,0.19-4.89c-0.03-1.15,0.83-1.33,0.82-0.33c0.06,3.41,2.53,5.81,5.67,5.67c3.36,0,5-2.28,5-4.25
		c0-1.83-0.56-3.55-3.66-5.97c-4.28-3.14-7.42-6.38-7.24-10.2c0-4.1,3.44-7.05,8.63-7.05c2.42,0,3.99,0.37,4.96,0.63
		c0.34,0.08,0.52,0.19,0.52,0.45c0,0.49-0.15,1.57-0.15,4.48c0,0.82-0.11,1.12-0.41,1.12c-0.26,0-0.37-0.22-0.37-0.67
		c-0.22-2-1.58-4.26-5.04-4.29c-2.76,0-4.44,1.6-4.44,3.84c0,1.72,0.86,3.02,3.95,5.38C99.71,347.015,102.59,350.465,102.36,354.215
		z"/>
	<path d="M51.59,352.885c-1.51,0-3.14,1-3.4,3.23c-0.01,0.11-0.1,0.34-0.18,0.5c-0.96,0.21-3.62,0.11-4.34,0.03
		c-0.24-4.06-0.11-16.4-0.08-19.47c4.6-0.07,4.96-6.57-0.25-6.68c-1.24-0.01-3.82,0.1-5.07,0.11c-1.44-0.01-3.6-0.12-5.12-0.11
		c-5.29,0.09-4.84,6.56-0.32,6.68c0.04,3.57,0.14,16.58-0.08,20.89c-4.43,0.56-3.97,6.7,0.66,6.66c5.48-0.29,9.84,0.1,15.57,0.11
		c1.63,0,4.37,0,5.25-3.22c0.38-1.39,0.66-4.46,0.66-5.09C54.89,353.645,52.73,352.885,51.59,352.885z M51.33,360.825
		c-0.22,0.82-0.41,1-2.35,1c-6.05-0.01-9.91-0.38-15.57-0.11c-0.84,0.08-1.09-0.69-0.15-0.67c1.67-0.01,2.24-0.28,2.43-2.2
		c0.3-2.66,0.16-10.82,0.19-14.52c0-5.68,0-6.72-0.08-7.92c-0.07-1.26-0.37-1.86-1.6-2.12c-0.3-0.2-1.91,0.09-1.87-0.45
		c0-0.26,0.26-0.34,0.82-0.34c4.07,0.1,6.21,0.11,10.19,0c0.984-0.099,1.087,0.728,0.12,0.67c-1.57,0.01-2.85,0.12-2.84,2.24
		c-0.11,0.38-0.08,11.57-0.08,14.49c0,4.77,0,7.35,0.79,8.02c0.63,0.56,1.6,0.82,4.51,0.82c1.98,0,3.44-0.03,4.37-1.04
		c0.45-0.49,0.9-1.53,0.97-2.24c0.04-0.34,0.11-0.56,0.41-0.56c0.26,0,0.3,0.18,0.3,0.63C51.89,356.935,51.63,359.735,51.33,360.825
		z"/>
	<path d="M77.13,353.045c1.39-0.95,1.22-3.48,1.35-5.24c0.12-1.68,0.24-1.81,0.31-2.92c0-1.53-0.97-2.78-2.34-3.18
		c2.01-0.56,2.57-2.45,2.58-4.77c0.03-1.52,0.28-2.26,0.35-3.4c0.08-2.44-2.44-3.97-4.51-3.11c-0.11,0.01-0.24,0.05-1.13,0.15
		c-0.08,0.05-10.97,0.03-14.49-0.08c-5.42,0.11-4.8,6.79-0.1,6.68c0.04,3.58,0.14,16.58-0.08,20.89c-4.43,0.56-3.97,6.7,0.66,6.66
		c5.31-0.29,9.33,0.11,15.04,0.11c1.42,0,4.06,0,4.92-3.2C80.3,358.325,81.35,353.425,77.13,353.045z M76.79,360.855
		c-0.26,0.97-0.6,0.97-2.02,0.97c-6.064,0.003-9.544-0.381-15.04-0.11c-0.48,0-0.74-0.11-0.74-0.37c0-0.19,0.15-0.3,0.59-0.3
		c0.56,0,1.01-0.08,1.35-0.15c1.8-0.38,1.1-6.73,1.27-10v-6.57c0-5.68,0-6.72-0.08-7.92c-0.07-1.26-0.37-1.86-1.6-2.12
		c-0.3-0.08-0.94-0.12-1.46-0.12c-0.41,0-0.63-0.07-0.63-0.33c0-0.26,0.26-0.34,0.82-0.34c4.71-0.04,11.99,0.45,16.31-0.15
		c1.46-0.54,0.54,0.56,0.52,2.62c-0.04,0.37-0.11,2.01-0.19,2.46c-0.03,0.19-0.11,0.41-0.37,0.41s-0.34-0.19-0.34-0.52
		c0-0.26-0.03-0.9-0.22-1.35c-0.26-0.67-0.63-1.12-2.5-1.34c-0.63-0.07-4.55-0.15-5.3-0.15c-0.19,0-0.26,0.11-0.26,0.37v9.45
		c0,0.26,0.04,0.41,0.26,0.41c0.82,0,5.11,0,5.97-0.08c0.9-0.07,1.46-0.18,1.79-0.56c0.312-0.401,0.785-0.774,0.86-0.18
		c0,0.22-0.15,0.82-0.3,2.72c-0.03,0.75-0.15,2.24-0.15,2.5c0,0.3,0,0.71-0.33,0.71c-0.26,0-0.34-0.15-0.34-0.33
		c-0.069-1.387-0.153-2.609-2.24-2.8c-0.71-0.08-4.4-0.11-5.3-0.11c-0.18,0-0.22,0.14-0.22,0.37v2.95c0,1.26-0.04,4.7,0,5.78
		c0.07,2.58,0.67,3.14,4.48,3.14c2.33,0.03,4.88-0.06,5.19-3.21c0.07-0.41,0.15-0.56,0.41-0.56c0.3,0,0.3,0.3,0.3,0.67
		C77.28,357.575,76.98,360.105,76.79,360.855z M74.59,341.715c-0.66,0.19-1.15,0.57-1.49,0.9c-1.151,0.093-1.734,0.044-3.2,0.08
		v-4.16c1.02,0.03,1.6,0.02,2.29,0.09C72.3,340.315,73.36,341.365,74.59,341.715z M69.9,350.605c0.69,0.01,1.33,0.03,1.76,0.04
		c0.038,1.664,1.488,3.128,3.15,3.17c-0.358,0.215-0.588,0.634-0.77,1.01h-0.01c-0.086,0.198-0.18,0.403-0.24,0.61h-0.01
		c-0.06,0.22-0.141,0.425-0.18,0.64h-0.01c-0.046,0.203-0.096,0.405-0.12,0.61c-1.08,0.18-2.71,0.13-3.56,0.07
		C69.86,355.475,69.91,352.375,69.9,350.605z"/>
	<path d="M126.96,330.495c-5.42,0.11-4.78,6.79-0.09,6.68c0.03,3.58,0.15,16.58-0.09,20.89c-4.42,0.57-3.96,6.71,0.67,6.66
		c4.22-0.34,8.4,0.22,12.65,0.33c8.23,0,12.71-3.32,14.65-5.31c6.59-6.46,6.3-18.51,0.47-24.08
		C147.57,328.055,135.95,331.245,126.96,330.495z M152.61,357.645c-6.71,6.61-15.72,3.51-25.16,4.07c-0.85,0.08-1.1-0.69-0.15-0.67
		c1.66-0.01,2.24-0.29,2.43-2.2c0.18-1.57,0.21-22.05,0.11-22.44c0.03-1.94-1.35-2.27-3.06-2.24c-0.95,0.04-0.83-0.77,0.18-0.67
		c4.8,0.12,6.22,0.1,11.13,0c4.66,0,10.9,0,14.96,4.26C158.18,342.675,157.59,352.935,152.61,357.645z"/>
	<path d="M148.09,338.985c-3.43-3.29-7.69-3.73-10.6-3.73c-0.75,0-2.13,0.11-2.43,0.26c-0.33,0.15-0.44,0.33-0.44,0.74
		c-0.07,3.77-0.06,16.53,0.03,19.71c0.04,0.94,0.12,2.43,0.41,2.84c0.49,0.71,1.94,1.49,4.89,1.49c3.81,0,6.35-0.74,8.59-2.69
		C153.35,353.475,152.19,342.275,148.09,338.985z M146.58,355.335c-1.36,1.18-3.01,1.96-6.63,1.96c-1.14,0-1.84-0.14-2.23-0.26
		c-0.23-3.54-0.12-13.92-0.13-18.78c5.22,0.04,10.9,2.03,11.08,10.06C148.67,351.825,147.98,354.125,146.58,355.335z"/>
	<path d="M185.71,361.635c0.61-3.32,1.65-8.21-2.56-8.59c1.39-0.95,1.21-3.47,1.35-5.24c0.12-1.68,0.24-1.81,0.31-2.92
		c0-1.53-0.98-2.78-2.34-3.18c1.09-0.31,2.11-1.21,2.4-2.74c0.09-0.43,0.17-1.95,0.22-2.75c0.09-1.54,0.25-1.54,0.31-2.68
		c0-1.43-0.79-2.59-1.96-3.08c0.62-3.34,1.41-6.95,2.26-10.31c-5.12-0.85-11.09-1.67-18.06-2.4c-1.2,4.42-2.1,8.67-2.73,12.78
		c-4.56,0.38-4.46,5.67-0.8,6.54c-0.69,7.61-0.46,14.64,0.45,21.1c-3.93,1.07-3.17,6.61,1.19,6.56
		c7.8,34.84,35.13,51.08,35.13,51.08c-7.7-10.05-18.27-25.08-19.97-50.97C182.35,364.835,184.87,364.745,185.71,361.635z
		 M172.06,329.915c1.95-1.69,5.53-4.66,6.75-5.04c0.27,0,0.34,0.11,0.53,0.45c0.3,0.52,0.63,1.23,1.08,2.24
		c0.38,0.88-0.59,0.44-1.02,0.53c-2.17,0.12-5.32,1.44-6.82,2.23c-0.3,0.15-0.56,0.3-0.63,0.3
		C171.55,330.535,171.75,330.165,172.06,329.915z M168.33,361.645c-1.06-0.08-2.35,0.3-3.23-0.09c-0.06-0.06-0.1-0.12-0.1-0.21
		c0.03-0.26,0.21-0.28,0.6-0.3c0.56,0,1.01-0.08,1.35-0.15c1.81-0.4,1.08-6.7,1.26-10c-0.01-2.93,0.03-14.1-0.07-14.49
		c0.02-1.93-1.35-2.27-3.06-2.24c-0.94,0.04-0.8-0.78,0.19-0.67c1.64-0.01,3.95,0.09,5.37,0.11c2.73-0.1,9.4,0.29,11.53-0.41
		c0.19,0,0.23,0.15,0.23,0.34c0,0.26-0.19,0.71-0.3,2.43c-0.04,0.37-0.11,2.01-0.19,2.46c-0.04,0.56-0.78,0.56-0.71-0.11
		c-0.12-1.52-0.17-2.42-2.72-2.69c-0.64-0.07-4.55-0.15-5.3-0.15c-0.19,0-0.26,0.11-0.26,0.37v9.45c0,0.26,0.03,0.41,0.26,0.41
		c0.82,0,5.11,0,5.97-0.08c0.9-0.07,1.46-0.18,1.79-0.56c0.25-0.32,0.78-0.82,0.86-0.18c0,0.22-0.15,0.82-0.3,2.72
		c-0.04,0.75-0.15,2.24-0.15,2.5c0,0.3,0,0.71-0.33,0.71c-0.22,0.01-0.35-0.12-0.34-0.33c-0.07-1.39-0.16-2.61-2.24-2.8
		c-0.71-0.08-4.4-0.11-5.3-0.11c-0.19,0-0.22,0.14-0.22,0.37c0.02,2.42-0.05,6.42,0,8.73c0.07,2.58,0.67,3.14,4.48,3.14
		c2.32,0,4.87-0.03,5.18-3.21c0.08-0.41,0.15-0.56,0.41-0.56c0.3,0,0.3,0.3,0.3,0.67c0,0.86-0.3,3.39-0.48,4.14
		c-0.25,0.98-0.66,0.97-2.06,0.97C175.48,361.865,172.92,361.505,168.33,361.645z"/>
	<path d="M448.86,330.495c-2.68,0.12-4.53,0.07-7.42,0c-5.14,0.09-4.84,5.2-2.13,6.34c-0.9,2.31-2.58,6.51-4,10.08l-0.82-2.15
		c-0.08-7.78-1.14-16.23-3.49-25.37c-7.15,0.88-13.08,1.86-18,2.83c0.71,2.86,1.31,5.82,1.83,8.61c-1.74-0.69-4.49-0.16-6.35-0.23
		c-2.06,0.11-5.25-0.56-7.08,0.38v-0.15h-4.32c-0.44-0.82-1.26-1.58-2.75-2.01c-3.29-1.11-6.48-1.53-7.32,2.01h-16.65
		c-3.83-0.49-7.1-0.34-10.57-0.27c-2.55,0.11-4.65-0.07-7.27-0.07c-1.32,0-2.19,0.41-2.79,0.96v-30.14
		c-0.39,0.47-0.77,0.94-1.15,1.41c0,0.01,0,0.01,0,0.01c-0.72,1-1.54,2.06-2.43,3.16c-0.01,0-0.01,0-0.01,0s0,0.01-0.01,0.01
		c-0.61,0.76-1.26,1.51-1.9,2.27v47.07h5.5v-19.02c0.62,0.59,1.56,0.97,2.69,0.95c0.04,3.58,0.14,16.58-0.08,20.89
		c-1.6,0.18-2.59,1.17-2.94,2.33h-20.39c3.27-4.43,2.09-11.31-1.73-14.91v-1.67h-1.79c-0.85-0.75-2-1.6-2.94-2.31
		c-2.75-2.09-2.75-2.66-2.75-2.97c-0.12-1.2,2.78-1.01,3.15-0.15c0.21,0.26,0.3,0.59,0.32,0.71c0.05,2.34,1.72,3.57,3.37,3.57
		c0.35,0,3.42-0.12,3.42-4.13c0-1.97,0.07-3.04,0.11-3.68c0.2-1.76-0.31-3.48-2.76-4.16c-2.27-0.76-7.84-1.15-10.63,0.14h-12.76
		c-1.5-0.64-4.25-0.21-5.53-0.23c-1.8,0.05-4.67-0.46-6.54,0.26v-0.57c-28.572-0.029-66.821-0.099-98.07,0
		c0,0.66-0.01,2.95,0.02,3.55l-3.64,23.68c-0.03,0.21-0.06,0.39-0.09,0.53c-4.54,0.43-4.11,6.69,0.48,6.67
		c1.03,0.01,2.69-0.1,3.7-0.12c1.17,0.03,2.55,0.12,3.92,0.12c5.13-0.08,5.04-6.18,0.77-6.67l0.45-3.41
		c1.06,2.14,3.15,4.55,4.14,6.56c0.78,1.45,1.6,3.14,3.44,3.42c8.04,7.97,19.1,12.9,31.29,12.9v-5.5c-10.4,0-19.86-4.1-26.86-10.77
		c0.06-0.11,0.12-0.23,0.18-0.35l2.87-5.87c0.5,0.54,1.02,1.06,1.56,1.56l0.38,2.72c-1.2,1.92-0.81,4.89,3.24,5.28
		c1.7,0.13,7.02,0.2,7.83,0.2c0.99,0,1.77-0.24,2.38-0.61c2.66,0.71,5.42,1.11,8.22,1.11v-3.27c1.84,1.3,4.03,2.28,6.56,2.79v19.7
		c-0.09,25.6,21.78,45.88,47.23,44.48v-46.73h-5.5v41.13c-20.21-1.42-36.23-18.31-36.23-38.88v-19.33c2.41-0.13,4.65-0.66,6.67-1.54
		v20.38c0,12.45,7.5,24.32,18.26,28.86l3.82,1.62v-32.24h-5.5v23.42c-6.6-4.62-11.08-13.1-11.08-21.66v-24.13
		c2.81-2.86,4.61-6.72,4.98-11.18h4.8c-0.04,1.49-0.1,7.93-0.17,9.33c-4.32,0.17-4.88,6.55,0.44,6.68c2.24,0.02,3.18-0.17,4.96-0.09
		c0.82,0.04,2.07,0.09,3.7,0.09c5.62-0.22,4.68-6.9,0.08-6.69c-0.14-0.81-0.25-8.26-0.3-9.27c1.78,1.86,3.69,3.76,5.57,5.63v0.58
		h0.58c2.64,2.64,6.12,6.21,8.57,8.54c0.46,0.56,2.07,1.75,3.34,1.65c0.36,0,3.49-0.11,3.49-4.16l0.27-15.08v82.98
		c25.45,1.4,47.32-18.88,47.23-44.48h-5.5c0,20.57-16.02,37.46-36.23,38.88v-86.97h2.63c-1.93,5.22-0.06,9.78,4.78,13.95v2.18
		c-1.35-1.93-5.68-2.25-6.11,2.45c-0.04,0.82-0.19,2.95-0.19,5.08c-0.23,3.33,2.99,4.63,6.3,5.07v50.05l3.82-1.62
		c10.76-4.55,18.27-16.42,18.27-28.87h-5.51c0,8.57-4.47,17.04-11.07,21.67v-41.25c1.83-0.29,3.46-0.88,4.91-1.81
		c0,0,0.01,0,0.01-0.01v2.68c5.78-0.28,32.74,0.79,37.82-0.91c7.87,0.73,14.54-2.92,16.45-5.25c3-3.05,4.75-7.37,4.9-11.92
		c0.02-0.07,0.06-0.13,0.08-0.19l1.62-3.82h-1.99c-0.63-3.36-2.11-5.81-3.54-7.48h6.68c-0.28,1.91-1.32,2.7-1.44,4.52
		c0,1.78,1.45,3.22,3.23,3.22c2.91-0.18,3.93-2.62,5.68-5.25c-2.57,19.02-18.9,33.74-38.61,33.74h-30.61v5.5h30.61
		c23.51,0,42.8-18.33,44.37-41.44c0.46,0.28,1.01,0.49,1.68,0.54c0.04,3.54,0.13,16.64-0.07,20.9c-4.44,0.56-3.99,6.7,0.65,6.66
		c3.61-0.14,6.74-0.08,10.52,0c1.67,0,2.78-0.81,3.33-1.85c0.04-0.93,0.07-1.89,0.09-2.85c-0.5-1.26-2.02-2.12-3.76-2
		c-0.14-4.27-0.09-17.36-0.04-20.87c0.88-0.09,1.57-0.44,2.08-0.93c5.314,27.243-0.624,59.014-18.45,79.58
		c0,0,27.25-16.18,35.09-50.92c4.86,1.9,5.75-4.12,7.58-7.68c2.56-5.81,6.09-14.05,8.91-20.03
		C453.57,337.355,454.27,330.665,448.86,330.495z M291.95,336.835c0.51,0.24,1.21,0.36,1.88,0.34c0.02,0.41,0.23,9.89,0.23,9.89
		c-0.74-0.77-1.46-1.51-2.11-2.17V336.835z M286.45,335.805v3.53c-1.26-1.28-2.43-2.48-3.44-3.53H286.45z M235.37,335.805
		c-1.9,2.13-3.2,4.69-3.87,7.4h-6.71l-1.11-7.4H235.37z M214.64,335.805l-3.58,7.4h-3.39l1.58,3.74l-0.52,1.08l-6-12.22H214.64z
		 M227.56,361.785c-1.03,0-6.23-0.08-7.57-0.18c-0.86-0.08-1.08-0.19-1.08-0.41c0-0.19,0.14-0.3,0.41-0.41
		c0.23,0,0.31-0.83,0.18-1.61c-0.62-4.44-1.57-11.47-2.2-15.97h-0.32c-2.13,4.34-5.98,12.24-8,16.38c-1.46,3-1.36,2.58-2.69,0.23
		c-3.28-6.31-4.81-9.5-8.17-16.46h-0.15c-0.47,3.53-1.47,10.98-1.95,14.55c-0.39,2.64,0.08,3.05,2.58,3.14
		c0.3,0,0.56,0.07,0.56,0.26c0,0.34-0.34,0.41-0.89,0.41c-3.41-0.1-4.43-0.12-7.62,0c-0.736,0.081-1.025-0.721-0.07-0.67
		c1.93,0.14,2.37-1.05,2.65-3.06c0.91-5.89,2.8-18.21,3.69-24.04c0.64-2.82,2.07,1.21,2.58,2.1l9.25,18.84
		c3.07-6.33,7.08-14.67,10.16-21.01c0.52-1.27,1.3-1.22,1.49,0.26c1.06,7.07,2.34,15.78,3.4,22.84c0.33,2.35,0.7,3.43,1.82,3.77
		c1.09,0.34,1.83,0.37,2.32,0.37C229.04,361.105,228.49,361.875,227.56,361.785z M226.88,357.215c-0.06-0.25-1.26-8.42-1.28-8.5h5.4
		c0.24,3.97,1.73,7.89,4.46,10.92C232.49,359.315,229.57,358.475,226.88,357.215z M264.35,348.715
		c-0.81,9.86-10.38,15.35-19.63,13.02c-17.03-4.79-12.67-29.46,4.65-28.76C258.89,332.745,265.44,339.425,264.35,348.715z
		 M267.12,343.205c-0.54-2.88-1.72-5.38-3.44-7.4h8.68l-0.11,7.4H267.12z M302.7,334.125c-2.03,0.05-2.87,0.36-2.86,3.33
		l-0.41,23.55c0.02,2.88-2.37-0.43-3.29-1.15c-4.5-4.44-15.54-15.55-18.36-18.78h-0.11c0.02,1.09,0.33,12.75,0.37,14.17
		c0,1.38,0.13,3.93,0.5,4.61c0.47,1.26,1.77,1.13,2.79,1.19c1.025-0.026,0.723,0.778-0.23,0.67c-5.014-0.096-3.812-0.122-8.66,0
		c-0.955,0.105-1.17-0.693-0.22-0.67c0.932-0.047,2.268,0.062,2.54-1.19c0.25-0.65,0.32-3.08,0.31-4.61
		c0.07-4.57,0.24-14.97,0.3-19.44c0.04-1.71-0.29-4.36,1.89-1.67c4.81,5.11,14.81,15.12,19.78,20.38h0.19l-0.38-16.76
		c0.04-3.35-1.01-3.59-3.24-3.59c-0.45,0-0.6-0.11-0.6-0.33c0-0.3,0.41-0.34,0.97-0.34c1.94,0,3.73,0.11,4.52,0.11
		c0.28,0.03,2.7-0.21,4.2-0.06C303.1,333.595,303.12,334.065,302.7,334.125z M324.41,360.705c-3.41,2.04-7.84,1.95-11.39,0.56
		c-0.6-0.26-0.71-0.44-0.71-1.27c0-2.05,0.15-4.29,0.19-4.89c-0.01-1.14,0.83-1.33,0.82-0.33c0.06,4.3,3.91,6.67,7.8,5.31
		c4.12-1.83,3.64-6.19,0-9.22c-4.73-3.5-10.62-8.47-6.9-14.53c1.4-2.06,4.06-3.36,7.5-3.36c2.42,0,3.99,0.37,4.96,0.63
		c0.34,0.08,0.53,0.19,0.53,0.45c-0.07,0.81-0.17,3.04-0.15,4.48c0.11,1.38-0.81,1.47-0.79,0.45c0.05-0.33-0.32-1.8-1.12-2.65
		c-0.6-0.7-1.69-1.64-3.92-1.64c-2.63,0.02-4.4,1.41-4.44,3.84c0,1.69,0.85,2.99,3.83,5.28c2.25,1.62,4.86,3.81,5.87,5.5
		C328.73,353.085,328.66,357.715,324.41,360.705z M381.84,343.815c2.1,10.77-5.11,18.42-16.18,18.24
		c-4.27-0.16-8.45-0.65-12.66-0.34c-0.48,0-0.74-0.11-0.74-0.37c0-0.19,0.15-0.3,0.59-0.3c0.87-0.07,1.56,0.04,2.02-0.65
		c0.92-2.69,0.64-23.21,0.52-23.99c0.03-1.95-1.4-2.27-3.06-2.24c-0.41,0-0.63-0.07-0.63-0.33c0-0.26,0.26-0.34,0.82-0.34
		c0.71,0,1.48,0.02,2.21,0.04C364.27,333.925,378.69,330.865,381.84,343.815z M393.47,336.335c-0.5,1.04-3.25,5.74-3.84,4.52
		c0.98-2.03,2.69-6.83,0.74-8.89c-0.52-0.5-0.59-0.83,0-0.97c0.75,0,2.39,0.49,3.1,0.71c0.93,0.26,1.08,0.52,1.08,1.08
		C394.55,333.765,394.11,335.045,393.47,336.335z M413.22,334.165c-1.47,0.02-2.5,0.32-2.5,2.24c-0.08,1.2-0.08,2.24-0.08,7.92v6.57
		c0,3.62,0,6.56,0.15,8.17c0.06,2.07,1.79,1.89,3.4,1.98c0.93-0.02,0.67,0.74-0.12,0.67c-4.93-0.08-6.11-0.14-10.52,0
		c-0.49,0-0.75-0.11-0.75-0.37c0-0.19,0.15-0.3,0.6-0.3c1.51-0.02,2.31-0.19,2.43-2.02c0.18-1.57,0.18-4.51,0.18-8.13v-6.57
		c0-5.68,0-6.72-0.07-7.92c-0.05-1.96-1.15-2.25-2.62-2.24c-0.83,0.03-0.86-0.76,0.3-0.67c3.45,0.11,5.89,0.11,9.41,0
		C414.01,333.405,414.09,334.185,413.22,334.165z M449.05,334.165c-2.15,0.11-2.4,0.57-3.88,3.81c-2.14,4.98-7.91,17.82-9.44,21.5
		c-0.97,2.17-1.2,2.76-1.72,2.76c-0.72-0.05-1.01-1.45-1.42-2.27l-9.4-22.81c-1-2.58-2.33-2.94-4.3-2.99
		c-0.33,0-0.45-0.11-0.45-0.33c0-0.3,0.42-0.34,0.97-0.34c4.25,0.1,5.71,0.12,10.01,0c0.45,0,0.86,0.08,0.86,0.34
		c0,0.26-0.23,0.33-0.56,0.33c-2.71-0.12-1.81,1.66-0.97,3.92c0.63,1.65,5.94,15.72,6.42,16.95h0.15c1.6-4.11,6.45-16.13,7.35-18.59
		c0.77-1.89,0.2-2.29-1.64-2.28c-1.02,0.04-0.83-0.77,0.41-0.67c3.79,0.09,4.11,0.13,7.42,0
		C449.79,333.395,449.97,334.195,449.05,334.165z"/>
	<path d="M239.34,343.205c-1.36,7.79,2.51,17.31,11.23,17.17c8.14,0.11,9.89-10.48,7.96-17.17
		C256.01,332.815,240.98,331.085,239.34,343.205z M248.29,337.775c3.3,0,5.85,2.05,7.09,5.43h-12.99
		C243.41,337.795,246.98,337.775,248.29,337.775z M256.06,350.955c-0.211,2.894-1.95,6.457-5.273,6.405
		c0.163-0.006,0.325-0.019,0.483-0.045c-0.34,0.04-0.69,0.05-1.05,0.03v-3.43h-5.5v0.78c-1.34-1.58-2.13-3.72-2.45-5.98h13.94
		C256.2,349.515,256.15,350.265,256.06,350.955z"/>
	<path d="M360.62,335.515c-0.37,0.15-0.47,0.4-0.45,0.82c-0.07,3.96-0.08,16.01,0.04,19.63c0.12,1.91-0.1,3.14,1.8,3.8
		c3.67,1.24,9.59,0.35,12.08-2.16c3.45-2.96,3.73-9.63,2.46-13.79C374.46,336.755,366.67,334.385,360.62,335.515z M363.14,343.725
		c0-1.88,0-3.93,0.01-5.47c3.23-0.11,8.44,1.1,10.19,5.56h-10.2V343.725z M363.84,357.135c-0.197-0.015-0.372-0.062-0.56-0.1
		c-0.14-2.1-0.12-2.95-0.14-7.72h11.06C374.08,352.035,373.387,357.877,363.84,357.135z"/>
	<path d="M503.52,358.035c-0.12,0-0.28,0-0.46-0.01c-0.14-4.27-0.09-17.36-0.04-20.87c4.15-0.46,4.46-6.54-0.66-6.66
		c-2.21,0-4.31,0.19-6.58,0.06c-2.74-0.14-5.63-0.33-6.48,2.06c-8.19-26.94-27.45-47.07-43.65-64.31
		c-4.8-5.11-8.05-9.46-10.77-11.46c-2.72-1.99-3.98-3.52-6.79-4.37c-2.81-0.84-4.65-0.91-5.51-0.2c-1.63,1.17-1.7,4.49,0.03,5.5
		c0.82,0.52,1.59,0.36,2.32-0.47c4.11-3.35,8.66,5.09,12.44,7.79c11.56,13,23.8,29.45,31.14,41.82
		c-10.26-10.46-23.02-16.73-39.6-28.63c-30.91-23.96-69.46-52.41-50.34-93.65c-0.6,0.5-26.01,21.87-9.21,58.28
		c-3.73-0.21-5.93,1.37-7.09,5.34c4.93-0.49,7.43,0.71,11.44,2.46c2.42,3.57,5.22,6.84,8.24,10.3l-0.31-0.04l-5.11,0.66l-2.11-0.66
		h-3c-1.55-0.12-3.44,1.36-4.74,2.34l-1.68,2.04c-2.41,0.46-4.58,3.89-6.28,5.7c-0.48,1.36-1.26,2.38-2.33,3.06l-0.66,1.68
		l-0.73,0.88l-0.73,1.24c-0.55-0.03-1.64-0.11-2.19-0.15c-0.75-0.04-2.24-0.33-2.33,0.66c-0.07,0.42-0.22,1.26-0.3,1.68
		c-0.24,0.9,0.83,1.85,1.39,2.55l1.46,1.03c0.04,0.23,0.41,4.71,0.44,5.1l-0.95,3.51c-0.08,0.78-0.38,4.35-0.48,5.07l0.07-0.08
		v17.53c4.96-3.62,9.29-6.63,11.58-10.11c4.62-7.05,4.01-13.39,4-17.46c4.25,1.04,9.84,2.4,14.1,3.44
		c0.06,3.27,0.15,7.75,0.22,11.02l0.07,3.65c-0.08,0.36-0.22,1.1-0.29,1.46l-0.15,0.8c-0.1,0.77-0.85,1.23-1.46,1.61v1.31
		c-0.73,0.15-1.38,0.03-1.97-0.36c-0.63,0.06-1.49,0.15-2.12,0.22v1.31l0.88,0.73l-0.88,0.66c6.63-0.08,17.02-0.22,23.73-0.29
		c0.18-0.66,0.54-1.98,0.73-2.63h-2.05c-1.78-1.43-4-2.97-4.74-5.18l-0.95-2.19l-0.44-3.8l0.44-4.23l-0.44-3.07l0.44-3.5v-6.57
		l-0.66-0.66l-0.87,0.08l-0.44-1.32l-0.66-0.58c0.87-1.16,2.13-1.4,1.39-3.28l-0.66-0.44l-0.29-2.12l-0.44-1.31l0.66-0.37l0.17-0.64
		c6.5,8.43,13.25,19.48,18.89,37.28c-1.64,2.2-1.7,1.92-4.31,3.58l0.79,2.05c6.25-0.69,14.64-1.3,23.26-1.74
		c-3.15-10.01-8.58-22.06-14.17-31.57c25.52,14.08,49.67,36.95,59.31,49.97c-13.23-3.22-23.98,5.82-23.74,17.04
		c-0.28,20.9,31.13,24.67,36.06,3.54c1.48,3.55,2.4,6.59,2.97,9.05c-0.41,1.06-0.21,2.26,0.5,3.17c0.16,1.49,0.29,2.91,0.37,4.22
		c0.17,4.59-0.27,6.99-0.27,6.99c1.02-3.32,1.74-6.63,2.21-9.92c3.84,0.09,7.24-0.1,11.26,0.07
		C508.27,364.725,508.37,358.115,503.52,358.035z M380.18,279.085v4.23c-3.2-0.8-6.26-2.8-9.71-1.9l-1.53-0.14l-0.87-1.46
		l-1.54-0.37c-0.78-1.62-2.19-2.26-0.94-4.3c1.04-1.84,2.09-4.27,3.86-5.63l0.81-1.82l2.11-0.66c2.27-2.04,5.19-0.62,7.81-0.58v4.23
		l0.66,4.16L380.18,279.085z M468.35,362.235c-10.71,0-15.04-8.02-15.04-14.63c0-6.38,4.22-14.63,15.42-14.63
		c7.94-0.09,14.43,4.32,15.02,12.6C484.49,354.585,478.35,362.285,468.35,362.235z M503.41,361.715c-5.25-0.14-6.42-0.03-10.9-0.04
		c-0.49-0.08-0.52-0.6,0.06-0.62c1.53-0.04,2.5-0.11,2.59-2.03c0.3-2.56,0.16-10.98,0.19-14.7c0-5.68,0-6.72-0.08-7.92
		c-0.07-1.26-0.45-1.9-1.27-2.09c-0.41-0.11-0.89-0.15-1.34-0.15c-0.37,0-0.6-0.07-0.6-0.37c0-0.22,0.3-0.3,0.9-0.3
		c3.45,0.11,5.89,0.11,9.4,0c0.99-0.09,1.07,0.69,0.19,0.67c-1.47,0.02-2.5,0.32-2.5,2.24c-0.08,1.2-0.08,2.24-0.08,7.92v6.57
		c0,3.62,0,6.56,0.15,8.17c0.12,1.01,0.38,1.68,1.5,1.83c0.52,0.07,1.34,0.15,1.9,0.15c0.41,0,0.6,0.11,0.6,0.3
		C504.12,361.605,503.82,361.715,503.41,361.715z M490.39,336.475c0.5,0.37,1.14,0.63,1.91,0.69c0.05,3.09,0.034,6.519,0.04,9.73
		C491.93,343.375,491.27,339.905,490.39,336.475z"/>
	<path d="M467.64,334.765c-4.29,0-9.18,2.39-9.18,11.68c0,7.77,4.3,13.93,11.46,13.93c2.61,0,8.66-1.27,8.66-12.06
		C478.58,339.955,473.77,334.765,467.64,334.765z M469.92,357.365c-5.84,0-8.45-5.48-8.45-10.92c0-8.67,4.65-8.67,6.17-8.67
		c4.75,0,7.94,4.23,7.94,10.54C475.58,354.235,473.62,357.365,469.92,357.365z"/>
	<path d="M562.81,353.045c1.36-0.93,1.22-3.49,1.35-5.24c0.11-1.68,0.25-1.8,0.3-2.92c0-1.53-0.97-2.78-2.34-3.18
		c1.09-0.31,2.14-1.21,2.4-2.74c0.1-0.45,0.17-2,0.23-2.81c0.09-1.56,0.25-1.46,0.31-2.62c0.08-2.46-2.46-3.96-4.54-3.11
		c0,0,0.01,0,0.03,0c-0.75,0.32-11.29,0.15-15.63,0.07c-5.42,0.11-4.78,6.8-0.09,6.68c0.03,3.58,0.15,16.58-0.09,20.89
		c-0.62,0.07-1.15,0.27-1.58,0.55c-0.75-0.52-1.5-0.54-2.48-0.64c-0.32-0.06-1.17-0.23-2.56-1.67c-1.7-1.78-3.69-4.27-6.16-7.4
		c5-4.66,5.12-12.73-0.03-16.29c-4.55-2.94-9.08-1.96-13.81-2.01c-1.49-0.03-3.42-0.11-5.12-0.11c-5.42,0.11-4.78,6.79-0.09,6.68
		c0.03,3.58,0.15,16.58-0.09,20.89c-4.42,0.56-3.97,6.71,0.67,6.66c3.46-0.14,6.43-0.07,10.04,0c5.22-0.07,4.73-7.01-0.05-6.7
		c-0.08-1.02-0.1-2.52-0.11-4.22c3.82,5.26,7.05,11.52,14.01,10.92c1.41-0.08,4.67,0.32,5.79-0.62c1.25,0.91,3.27,0.54,4.81,0.54
		c2.46-0.08,3.15-0.04,5.87,0.07c2.15,0.06,3.75,0.12,6.6,0.12c1.42,0,4.06,0,4.92-3.2
		C565.97,358.335,567.01,353.425,562.81,353.045z M540.92,361.715c-2.02-0.05-6.24,0.26-7.54-0.71c-2.31-0.85-7.31-8.78-8.81-10.64
		c-0.18-0.22-0.41-0.26-0.67-0.26l-3.25-0.07c-0.18,0-0.29,0.07-0.29,0.3c0,3.34-0.01,6.97,0.18,8.51c0.09,2.28,1.57,2.1,3.29,2.2
		c0.3,0,0.44,0.11,0.44,0.3c0,0.26-0.26,0.37-0.74,0.37c-4.89-0.09-5.67-0.13-10.04,0c-0.85,0.08-1.1-0.69-0.15-0.67
		c1.66-0.01,2.24-0.29,2.43-2.2c0.29-2.66,0.15-10.82,0.18-14.52c0-5.68,0-6.72-0.07-7.92c0.04-1.92-1.38-2.28-3.06-2.24
		c-0.95,0.04-0.83-0.77,0.18-0.67c4.24,0.1,6.76,0.12,10.38,0c2.35,0,4.85,0.23,6.87,1.61c4.2,3.42,3.07,9.35-2.39,13.47
		c3.32,4.18,5.89,7.5,8.1,9.82c2.09,2.16,3.62,2.43,4.18,2.54c0.48,0.18,1.44-0.09,1.49,0.41
		C541.63,361.645,541.37,361.715,540.92,361.715z M562.46,360.855c-0.26,0.97-0.59,0.97-2.01,0.97c-6.05,0.01-9.55-0.38-15.04-0.11
		c-0.49,0-0.75-0.11-0.75-0.37c0-0.19,0.15-0.3,0.6-0.3c0.56,0,1.01-0.08,1.34-0.15c1.79-0.36,1.1-6.74,1.27-10v-6.57
		c0-5.68,0-6.72-0.07-7.92c-0.08-1.26-0.38-1.86-1.61-2.12c-0.3-0.08-0.93-0.12-1.46-0.12c-0.41,0-0.63-0.07-0.63-0.33
		c0-0.26,0.26-0.34,0.82-0.34c4.7-0.04,11.99,0.45,16.31-0.15c0.3-0.06,0.86-0.38,0.82,0.19c0,0.26-0.18,0.71-0.3,2.43
		c-0.03,0.37-0.11,2.01-0.18,2.46c-0.04,0.19-0.11,0.41-0.37,0.41c-0.27,0-0.34-0.19-0.34-0.52c0-0.26-0.04-0.9-0.23-1.35
		c-0.26-0.67-0.63-1.12-2.5-1.34c-0.63-0.07-4.55-0.15-5.3-0.15c-0.18,0-0.26,0.11-0.26,0.37v9.45c0,0.26,0.04,0.41,0.26,0.41
		c0.83,0,5.12,0,5.98-0.08c0.89-0.07,1.45-0.18,1.79-0.56c0.31-0.4,0.78-0.77,0.86-0.18c0,0.22-0.15,0.82-0.3,2.72
		c-0.04,0.75-0.15,2.24-0.15,2.5c0,0.3,0,0.71-0.34,0.71c-0.26,0-0.33-0.15-0.33-0.33c-0.04-0.38-0.04-0.86-0.15-1.35
		c-0.19-0.74-0.71-1.3-2.09-1.45c-0.71-0.08-4.41-0.11-5.3-0.11c-0.19,0-0.23,0.14-0.23,0.37v2.95c0,1.26-0.04,4.7,0,5.78
		c0.08,2.58,0.68,3.14,4.48,3.14c0.97,0,2.54,0,3.51-0.45c0.97-0.45,1.42-1.23,1.68-2.76c0.07-0.41,0.15-0.56,0.41-0.56
		c0.3,0,0.3,0.3,0.3,0.67C562.95,357.575,562.65,360.105,562.46,360.855z M560.26,341.715c-0.66,0.19-1.14,0.57-1.48,0.9
		c-0.559,0.039-0.438,0.049-3.2,0.08v-4.16c1.073,0.027,1.944,0.039,2.28,0.09C557.98,340.315,559.03,341.365,560.26,341.715z
		 M560.48,353.815c-0.663,0.424-1.199,1.838-1.33,2.87c-1.085,0.182-2.704,0.128-3.57,0.07c-0.039-1.258-0.007-4.47,0-6.15
		c0.68,0.01,1.33,0.03,1.75,0.04C557.423,352.365,558.745,353.726,560.48,353.815z"/>
	<path d="M522.67,335.255c-0.93,0-1.6,0.03-1.98,0.15c-0.26,0.07-0.33,0.22-0.33,0.52v11.35c0,0.41,0.07,0.56,0.33,0.67
		c1.46,0.44,4.46,0.67,5.49-0.26c1.12-0.83,2.2-2.54,2.2-5.6C528.38,336.785,524.87,335.255,522.67,335.255z M523.66,345.315
		c-0.006,0-0.014-0.003-0.022-0.003c0.033,0,0.063,0.003,0.096,0.002C523.725,345.315,523.671,345.315,523.66,345.315z
		 M524.4,345.255c-0.299,0.081-0.703,0.038-1.04,0.05v-6.95c0.85,0.24,2.01,1.06,2.01,3.73
		C525.37,343.895,524.87,344.915,524.4,345.255z"/>
</g>
</svg>
